<?xml version="1.0" encoding="UTF-8" standalone="no"?>
<!-- Created with Inkscape (http://www.inkscape.org/) -->

<svg
   width="255.99998"
   height="255.99998"
   viewBox="0 0 67.733329 67.733328"
   version="1.1"
   id="svg1"
   xmlns="http://www.w3.org/2000/svg"
   xmlns:svg="http://www.w3.org/2000/svg">
  <defs
     id="defs1" />
  <g
     id="layer1">
    <circle
       style="display:inline;fill:#87878a;fill-opacity:1;stroke-width:0.406634"
       id="path10"
       cx="33.866665"
       cy="33.866665"
       r="33.866665" />
    <circle
       style="fill:#ffffff;fill-opacity:1;stroke-width:0.372457"
       id="circle10"
       cx="33.866665"
       cy="33.866665"
       r="31.020287" />
    <path
       fill="#87878A"
       opacity="1"
       stroke="none"
       d="m 41.33995,30.816921 c 0,5.14203 0,10.08074 0,15.211552 -1.302539,0 -2.469509,0 -3.874182,0 0,-8.622344 0,-17.257359 0,-26.123621 -3.031055,0 -5.841086,0 -8.841038,0 0,-1.317446 0,-2.404672 0,-3.617677 4.153621,0 8.260724,0 12.715225,0 0,4.771579 0,9.549004 -5e-6,14.529746 z"
       id="path7"
       style="fill:#87878a;fill-opacity:1;stroke-width:0.406634" />
    <path
       fill="#87888b"
       opacity="1"
       stroke="none"
       d="m 31.317888,52.049585 c -1.088217,1.021798 -2.076244,1.938209 -3.226288,3.004891 -0.866164,-0.96541 -1.652868,-1.842264 -2.388972,-2.662705 0.09933,-0.229903 0.108182,-0.31634 0.154604,-0.348464 3.845017,-2.660128 4.165707,-6.519536 3.961875,-10.752736 -0.227356,-4.721666 -0.05213,-9.462717 -0.05213,-14.363607 -1.050691,-0.0973 -1.96493,-0.181972 -2.872175,-0.265993 -0.986941,-2.989536 -0.641193,-3.521141 2.270892,-3.520007 1.410129,5.28e-4 2.820257,9.4e-5 4.448387,9.4e-5 0.05101,0.9388 0.129328,1.719528 0.130235,2.500345 0.0078,6.768223 -0.06158,13.537354 0.03387,20.304213 0.03384,2.398683 -0.582744,4.387794 -2.460293,6.103969 z"
       id="path8"
       style="stroke-width:0.406634" />
    <path
       fill="#898a8d"
       opacity="1"
       stroke="none"
       d="m 47.437043,19.78678 c -1.040186,5.29e-4 -1.89697,5.29e-4 -2.892633,5.29e-4 0,-1.256517 0,-2.296274 0,-3.480559 1.491803,0 2.922642,0 4.63708,0 -0.66993,1.218789 1.379675,3.284987 -1.744447,3.480038 z"
       id="path9"
       style="stroke-width:0.406634" />
  </g>
</svg>
